<mxfile host="app.diagrams.net" agent="Mozilla/5.0 (X11; Linux x86_64; rv:135.0) Gecko/20100101 Firefox/135.0" version="26.0.11">
  <diagram name="Page-1" id="c37626ed-c26b-45fb-9056-f9ebc6bb27b6">
    <mxGraphModel dx="1434" dy="759" grid="1" gridSize="10" guides="1" tooltips="1" connect="1" arrows="1" fold="1" page="1" pageScale="1" pageWidth="1100" pageHeight="850" background="none" math="0" shadow="0">
      <root>
        <mxCell id="0" />
        <mxCell id="1" parent="0" />
        <mxCell id="_jK0SVHkLejpZEnpElJ0-42" value="" style="rounded=0;whiteSpace=wrap;html=1;fillColor=#f5f5f5;strokeColor=#666666;fontColor=#333333;" parent="1" vertex="1">
          <mxGeometry x="260" y="150" width="680" height="590" as="geometry" />
        </mxCell>
        <mxCell id="_jK0SVHkLejpZEnpElJ0-24" value="Serial" style="endArrow=none;html=1;rounded=0;strokeWidth=3;entryX=0.31;entryY=0.8;entryDx=0;entryDy=0;entryPerimeter=0;fontSize=14;fontStyle=1;labelBackgroundColor=light-dark(#f5f5f5, #272727);" parent="1" source="_jK0SVHkLejpZEnpElJ0-1" target="_jK0SVHkLejpZEnpElJ0-19" edge="1">
          <mxGeometry x="-0.6766" y="4" width="50" height="50" relative="1" as="geometry">
            <mxPoint x="161" y="605" as="sourcePoint" />
            <mxPoint x="355.79999999999995" y="616" as="targetPoint" />
            <mxPoint as="offset" />
          </mxGeometry>
        </mxCell>
        <mxCell id="_jK0SVHkLejpZEnpElJ0-36" value="Fiber" style="endArrow=none;html=1;rounded=0;strokeWidth=3;entryX=0.55;entryY=0.95;entryDx=0;entryDy=0;entryPerimeter=0;exitX=0;exitY=0.5;exitDx=0;exitDy=0;exitPerimeter=0;fontSize=14;fontStyle=1;labelBackgroundColor=light-dark(#f5f5f5, #272727);" parent="1" source="_jK0SVHkLejpZEnpElJ0-2" target="_jK0SVHkLejpZEnpElJ0-10" edge="1">
          <mxGeometry x="-0.3827" y="5" width="50" height="50" relative="1" as="geometry">
            <mxPoint x="540" y="185" as="sourcePoint" />
            <mxPoint x="325.5" y="260" as="targetPoint" />
            <mxPoint as="offset" />
          </mxGeometry>
        </mxCell>
        <mxCell id="_jK0SVHkLejpZEnpElJ0-32" value="Fiber" style="endArrow=none;html=1;rounded=0;strokeWidth=3;entryX=0.2;entryY=0.08;entryDx=0;entryDy=0;entryPerimeter=0;exitX=0.8;exitY=0.8;exitDx=0;exitDy=0;exitPerimeter=0;fontSize=14;fontStyle=1;labelBackgroundColor=light-dark(#f5f5f5, #272727);" parent="1" source="_jK0SVHkLejpZEnpElJ0-10" target="_jK0SVHkLejpZEnpElJ0-3" edge="1">
          <mxGeometry x="0.4639" y="1" width="50" height="50" relative="1" as="geometry">
            <mxPoint x="738.5" y="616" as="sourcePoint" />
            <mxPoint x="855" y="565" as="targetPoint" />
            <mxPoint x="1" as="offset" />
          </mxGeometry>
        </mxCell>
        <mxCell id="_jK0SVHkLejpZEnpElJ0-10" value="&lt;font style=&quot;font-size: 16px;&quot;&gt;&lt;b&gt;ISP 1&lt;/b&gt;&lt;/font&gt;" style="ellipse;shape=cloud;whiteSpace=wrap;html=1;strokeWidth=3;" parent="1" vertex="1">
          <mxGeometry x="354.5" y="400" width="220" height="133" as="geometry" />
        </mxCell>
        <mxCell id="_jK0SVHkLejpZEnpElJ0-19" value="&lt;font style=&quot;font-size: 16px;&quot;&gt;&lt;b&gt;ISP 2&lt;/b&gt;&lt;/font&gt;" style="ellipse;shape=cloud;whiteSpace=wrap;html=1;strokeWidth=3;" parent="1" vertex="1">
          <mxGeometry x="625.5" y="400" width="220" height="133" as="geometry" />
        </mxCell>
        <mxCell id="_jK0SVHkLejpZEnpElJ0-20" value="&lt;font style=&quot;font-size: 16px;&quot;&gt;&lt;b&gt;Internet&lt;/b&gt;&lt;/font&gt;" style="ellipse;shape=cloud;whiteSpace=wrap;html=1;strokeWidth=3;" parent="1" vertex="1">
          <mxGeometry x="449.25" y="210" width="301.5" height="190" as="geometry" />
        </mxCell>
        <mxCell id="_jK0SVHkLejpZEnpElJ0-23" value="Fiber" style="endArrow=none;html=1;rounded=0;strokeWidth=3;entryX=0.31;entryY=0.8;entryDx=0;entryDy=0;entryPerimeter=0;fontSize=14;labelBackgroundColor=light-dark(#f5f5f5, #272727);fontStyle=1" parent="1" source="_jK0SVHkLejpZEnpElJ0-1" target="_jK0SVHkLejpZEnpElJ0-10" edge="1">
          <mxGeometry x="-0.2881" width="50" height="50" relative="1" as="geometry">
            <mxPoint x="504.5" y="640" as="sourcePoint" />
            <mxPoint x="221.23790322580635" y="657" as="targetPoint" />
            <mxPoint as="offset" />
          </mxGeometry>
        </mxCell>
        <mxCell id="_jK0SVHkLejpZEnpElJ0-18" style="edgeStyle=orthogonalEdgeStyle;rounded=0;orthogonalLoop=1;jettySize=auto;html=1;exitX=0.5;exitY=1;exitDx=0;exitDy=0;exitPerimeter=0;labelBackgroundColor=default;" parent="1" edge="1">
          <mxGeometry relative="1" as="geometry">
            <mxPoint x="508.5" y="305.5" as="sourcePoint" />
            <mxPoint x="508.5" y="305.5" as="targetPoint" />
          </mxGeometry>
        </mxCell>
        <mxCell id="_jK0SVHkLejpZEnpElJ0-2" value="&lt;font style=&quot;font-size: 16px;&quot;&gt;&lt;b&gt;Truffle Branch&lt;/b&gt;&lt;/font&gt;" style="shape=mxgraph.cisco.buildings.branch_office;sketch=0;html=1;pointerEvents=1;dashed=0;fillColor=#036897;strokeColor=#ffffff;strokeWidth=2;verticalLabelPosition=bottom;verticalAlign=top;align=center;outlineConnect=0;labelBackgroundColor=light-dark(#f5f5f5, #272727);" parent="1" vertex="1">
          <mxGeometry x="574.5" y="620" width="51" height="75" as="geometry" />
        </mxCell>
        <mxCell id="_jK0SVHkLejpZEnpElJ0-1" value="&lt;font style=&quot;font-size: 16px;&quot;&gt;&lt;b&gt;Beefsteak Branch&lt;/b&gt;&lt;/font&gt;" style="shape=mxgraph.cisco.buildings.branch_office;sketch=0;html=1;pointerEvents=1;dashed=0;fillColor=#036897;strokeColor=#ffffff;strokeWidth=2;verticalLabelPosition=bottom;verticalAlign=top;align=center;outlineConnect=0;" parent="1" vertex="1">
          <mxGeometry x="330" y="620" width="51" height="75" as="geometry" />
        </mxCell>
        <mxCell id="_jK0SVHkLejpZEnpElJ0-3" value="&lt;font style=&quot;font-size: 16px;&quot;&gt;&lt;b&gt;Chanterelle Branch&lt;/b&gt;&lt;/font&gt;" style="shape=mxgraph.cisco.buildings.branch_office;sketch=0;html=1;pointerEvents=1;dashed=0;fillColor=#036897;strokeColor=#ffffff;strokeWidth=2;verticalLabelPosition=bottom;verticalAlign=top;align=center;outlineConnect=0;" parent="1" vertex="1">
          <mxGeometry x="820" y="630" width="51" height="75" as="geometry" />
        </mxCell>
        <mxCell id="_jK0SVHkLejpZEnpElJ0-33" value="" style="endArrow=none;html=1;rounded=0;strokeWidth=3;entryX=0.8;entryY=0.8;entryDx=0;entryDy=0;entryPerimeter=0;exitX=0.4;exitY=0.1;exitDx=0;exitDy=0;exitPerimeter=0;" parent="1" source="_jK0SVHkLejpZEnpElJ0-19" target="_jK0SVHkLejpZEnpElJ0-20" edge="1">
          <mxGeometry width="50" height="50" relative="1" as="geometry">
            <mxPoint x="746" y="533" as="sourcePoint" />
            <mxPoint x="865" y="575" as="targetPoint" />
          </mxGeometry>
        </mxCell>
        <mxCell id="_jK0SVHkLejpZEnpElJ0-34" value="" style="endArrow=none;html=1;rounded=0;strokeWidth=3;entryX=0.215;entryY=0.821;entryDx=0;entryDy=0;entryPerimeter=0;exitX=0.625;exitY=0.2;exitDx=0;exitDy=0;exitPerimeter=0;" parent="1" source="_jK0SVHkLejpZEnpElJ0-10" target="_jK0SVHkLejpZEnpElJ0-20" edge="1">
          <mxGeometry width="50" height="50" relative="1" as="geometry">
            <mxPoint x="756" y="543" as="sourcePoint" />
            <mxPoint x="875" y="585" as="targetPoint" />
          </mxGeometry>
        </mxCell>
        <mxCell id="_jK0SVHkLejpZEnpElJ0-37" value="Serial" style="endArrow=none;html=1;rounded=0;strokeWidth=3;entryX=0.5;entryY=0;entryDx=0;entryDy=0;entryPerimeter=0;exitX=0.55;exitY=0.95;exitDx=0;exitDy=0;exitPerimeter=0;labelBackgroundColor=light-dark(#f5f5f5, #272727);fontSize=14;fontStyle=1" parent="1" source="_jK0SVHkLejpZEnpElJ0-19" target="_jK0SVHkLejpZEnpElJ0-3" edge="1">
          <mxGeometry width="50" height="50" relative="1" as="geometry">
            <mxPoint x="748.5" y="626" as="sourcePoint" />
            <mxPoint x="676" y="720" as="targetPoint" />
          </mxGeometry>
        </mxCell>
        <mxCell id="_jK0SVHkLejpZEnpElJ0-41" value="&lt;font style=&quot;font-size: 24px;&quot;&gt;&lt;b&gt;Organizational Layout&lt;/b&gt;&lt;/font&gt;" style="text;html=1;align=center;verticalAlign=middle;whiteSpace=wrap;rounded=0;" parent="1" vertex="1">
          <mxGeometry x="395" y="180" width="410" height="30" as="geometry" />
        </mxCell>
        <mxCell id="_jK0SVHkLejpZEnpElJ0-35" value="Fiber" style="endArrow=none;html=1;rounded=0;strokeWidth=3;entryX=0.384;entryY=0.895;entryDx=0;entryDy=0;entryPerimeter=0;exitX=1;exitY=0.5;exitDx=0;exitDy=0;exitPerimeter=0;fontSize=14;fontStyle=1;labelBackgroundColor=light-dark(#f5f5f5, #272727);" parent="1" source="_jK0SVHkLejpZEnpElJ0-2" target="_jK0SVHkLejpZEnpElJ0-19" edge="1">
          <mxGeometry x="-0.5037" y="1" width="50" height="50" relative="1" as="geometry">
            <mxPoint x="766" y="553" as="sourcePoint" />
            <mxPoint x="508.5" y="278.5" as="targetPoint" />
            <Array as="points" />
            <mxPoint as="offset" />
          </mxGeometry>
        </mxCell>
      </root>
    </mxGraphModel>
  </diagram>
</mxfile>
